<svg xmlns="http://www.w3.org/2000/svg" width="400" height="108.869" viewBox="0 0 400 108.869"><g fill-rule="evenodd"><path fill="#ffffff" d="M93.358 10.161c-1.01.159-1.073.205-1.335.989-.362 1.081-.261 86.069.102 86.389 1.671 1.473 7.976 1.396 9.375-.116l.417-.45.043-42.56.043-42.56-.376-.573a27 27 0 0 1-.555-.873c-.202-.343-5.934-.525-7.714-.246m155.355 3.826a3.8 3.8 0 0 0-.917.376c-.209.132-.717.366-1.129.52-1.653.618-2.161 2.379-1.922 6.663.159 2.86.375 3.327 1.826 3.949.45.193.912.479 1.026.636.405.553 5.494.415 6.342-.173.364-.252.776-.458.916-.458.139 0 .375-.131.525-.292.149-.16.435-.47.635-.689.537-.587.644-1.309.644-4.352 0-3.781-.372-4.881-1.812-5.356a7.3 7.3 0 0 1-1.167-.542c-.651-.384-3.845-.566-4.967-.282m-209.828 2.19c-1.43.186-1.623.328-1.962 1.44-.162.532-.47 1.229-.684 1.55s-.442.92-.504 1.333c-.132.868-.328 1.3-.755 1.66-.195.165-.368.666-.481 1.399-.098.628-.353 1.491-.568 1.917s-.487 1.224-.605 1.774c-.232 1.082-.584 1.917-.809 1.917-.136 0-.391.824-.611 1.975-.059.307-.247.699-.419.871-.193.193-.436.922-.64 1.921-.208 1.017-.451 1.739-.659 1.962-.182.195-.439.823-.571 1.396-.131.574-.431 1.324-.665 1.667-.273.4-.469.978-.545 1.608a6.4 6.4 0 0 1-.579 1.86 8.3 8.3 0 0 0-.651 1.766c-.105.489-.384 1.169-.62 1.511s-.534 1.128-.663 1.75c-.129.621-.378 1.326-.554 1.567s-.438 1.063-.583 1.828c-.187.986-.379 1.512-.661 1.812-.245.261-.472.804-.594 1.422-.109.55-.373 1.263-.586 1.584-.23.344-.495 1.158-.648 1.985-.16.863-.415 1.632-.665 2-.222.329-.49 1.01-.594 1.513-.111.538-.354 1.086-.59 1.333-.286.299-.453.751-.584 1.585-.102.642-.4 1.617-.662 2.167s-.53 1.337-.594 1.75c-.132.842-.301 1.222-.737 1.658-.164.164-.383.777-.486 1.361-.103.585-.336 1.264-.517 1.51-.182.245-.482 1.14-.667 1.989-.198.904-.47 1.685-.658 1.887-.176.19-.444.832-.595 1.428-.152.596-.448 1.346-.66 1.667-.232.353-.46 1.077-.576 1.833-.116.754-.332 1.442-.544 1.733-.193.265-.486 1.005-.65 1.643s-.452 1.325-.64 1.525c-.211.224-.444.871-.608 1.69-.146.729-.41 1.53-.588 1.779-.247.348-.82 2.373-.82 2.899 0 .044-.193.26-.43.48-.375.347-.455.614-.617 2.073-.346 3.118.054 3.39 4.87 3.31 3.348-.055 3.435-.071 4.76-.852.589-.347.698-.513.938-1.429.149-.57.43-1.185.625-1.367s.354-.358.354-.392c0-.554.572-2.752.821-3.155.182-.295.422-1.081.532-1.748.133-.804.36-1.452.675-1.929.268-.403.553-1.146.653-1.697.097-.539.354-1.242.57-1.563.263-.39.459-1.041.591-1.964.134-.934.327-1.572.597-1.968.219-.323.528-1.124.688-1.78.248-1.021.372-1.248.856-1.574l.567-.38h16.491c19.41 0 17.55-.227 18.112 2.202.1.432.359 1.045.575 1.363.239.353.494 1.136.654 2.008.156.847.4 1.603.599 1.856.185.235.383.778.442 1.207.151 1.119.221 1.31.664 1.837.234.278.511.973.674 1.69.152.669.451 1.564.664 1.988s.439 1.182.503 1.684c.129 1.006.275 1.367.742 1.835.172.171.36.597.418.945.458 2.722 1.462 3.218 6.513 3.218 3.811 0 3.853-.009 5.046-1.025.367-.312.159-2.796-.285-3.413-.189-.263-.466-.966-.614-1.562-.149-.596-.448-1.346-.666-1.667-.217-.32-.514-1.106-.661-1.746s-.446-1.54-.665-2-.448-1.175-.509-1.587c-.061-.413-.297-1.025-.525-1.361s-.553-1.149-.722-1.806-.43-1.331-.58-1.497-.387-.928-.527-1.694c-.262-1.441-.275-1.478-.78-2.192-.168-.237-.399-.837-.515-1.335-.116-.497-.375-1.136-.576-1.418-.202-.283-.517-1.204-.701-2.046-.183-.843-.472-1.708-.641-1.923s-.401-.885-.515-1.489-.338-1.224-.497-1.377c-.418-.403-.613-.846-.746-1.695-.065-.413-.328-1.2-.586-1.75a10.4 10.4 0 0 1-.669-2.12c-.133-.734-.336-1.264-.588-1.536-.22-.238-.473-.83-.589-1.38-.112-.531-.382-1.233-.599-1.561-.239-.36-.49-1.131-.634-1.947-.145-.826-.397-1.598-.649-1.987-.227-.35-.5-1.068-.606-1.596-.109-.545-.368-1.168-.597-1.441-.277-.328-.488-.916-.665-1.852-.143-.755-.402-1.569-.576-1.809-.173-.241-.432-.953-.575-1.583-.146-.645-.43-1.348-.649-1.608-.229-.272-.475-.899-.597-1.52-.115-.581-.385-1.358-.601-1.726-.223-.381-.475-1.21-.583-1.919-.138-.907-.298-1.363-.583-1.667-.226-.239-.496-.854-.632-1.439-.131-.561-.399-1.238-.595-1.503-.215-.291-.489-1.141-.69-2.14-.191-.946-.434-1.714-.567-1.788-.254-.142-.5-.83-.674-1.878-.061-.367-.29-.857-.51-1.089-.273-.287-.486-.839-.671-1.732-.149-.721-.412-1.543-.585-1.827-.172-.284-.438-1.079-.59-1.767-.163-.739-.434-1.442-.662-1.716-.344-.412-.73-1.4-.732-1.877-.004-.714-1.368-1.623-2.634-1.756-1.624-.171-8.115-.154-9.482.024m4.987 12.115c.141.16.338.679.438 1.152s.37 1.14.602 1.481.424.705.427.807c.029.922.524 2.797.875 3.314.232.342.473.994.535 1.45.073.526.282 1.041.573 1.407.324.408.516.921.652 1.745.106.643.371 1.502.588 1.91s.488 1.256.603 1.884c.139.756.341 1.283.6 1.561.251.271.481.854.647 1.642.142.672.402 1.407.58 1.632.3.383.506 1.148.762 2.838.058.383.281.887.496 1.119.231.249.47.816.585 1.386.107.53.376 1.232.599 1.56.253.372.494 1.106.644 1.956.134.76.421 1.674.651 2.07.227.391.491 1.148.588 1.683.109.599.338 1.164.597 1.471.23.274.421.549.422.611.015.584.542 2.418.839 2.922.564.957.193 1.667-1.006 1.924-.997.214-24.267.243-25.548.032-1.228-.202-1.674-1.146-.967-2.045.177-.225.438-1.026.582-1.78.258-1.363.462-1.913.856-2.306.113-.113.332-.777.488-1.476.163-.733.422-1.41.611-1.6.227-.227.405-.8.576-1.86q.246-1.532.641-2.115c.216-.321.476-.983.577-1.471.2-.966.446-1.519.79-1.779.122-.092.329-.789.461-1.549s.388-1.634.57-1.943c.182-.308.459-1.134.615-1.836.175-.789.438-1.459.689-1.757.268-.318.462-.84.571-1.532.09-.578.313-1.255.494-1.505.182-.25.476-1.179.654-2.064.21-1.045.471-1.823.745-2.217.231-.334.496-1.005.588-1.49.182-.961.244-1.108.675-1.607.168-.194.367-.877.475-1.63.103-.713.303-1.538.444-1.833.873-1.825 1.299-2.454 1.661-2.454.109 0 .314.131.455.292m97.295 8.698c-2.083.089-2.297.129-2.873.536-.387.273-1.047.513-1.75.635-.62.108-1.352.334-1.627.503s-.926.429-1.446.579-1.224.494-1.564.765c-.34.27-.89.564-1.221.654s-.696.312-.809.495-.444.455-.733.605c-1.114.576-5.311 4.832-5.311 5.385 0 .096-.215.421-.478.722s-.676.941-.919 1.423c-.243.481-.503.875-.579.875-.195 0-.524.777-.524 1.241 0 .215-.229.828-.509 1.361-.281.533-.62 1.496-.754 2.141-.134.646-.395 1.381-.58 1.634-.217.297-.4.948-.516 1.833a38 38 0 0 1-.568 3.04c-.692 2.963-.691 12.325.001 14.214.145.394.343 1.481.441 2.417.125 1.193.296 1.933.574 2.476.218.425.507 1.252.642 1.836.136.585.477 1.501.758 2.035s.511 1.149.511 1.364c0 .459.328 1.241.52 1.241.073 0 .336.356.584.792.248.435.617.979.82 1.208s.464.602.581.828c.241.466.743 1.045 1.829 2.111 1.416 1.39 1.983 1.877 2.479 2.134.273.141.542.399.598.573.064.203.364.384.831.501.401.101.945.365 1.207.585.262.221.799.488 1.192.594.394.106.942.409 1.218.673.387.37.721.505 1.447.586.519.058 1.394.257 1.944.442 2.496.837 7.639 1.128 14.419.814 4.091-.19 4.824-.278 6.748-.81a21 21 0 0 1 2.451-.489c.963-.125 1.407-.27 1.775-.58.301-.253.898-.491 1.549-.619.582-.113 1.183-.318 1.336-.454.152-.136.714-.424 1.25-.639.963-.387.977-.402 1.389-1.529.229-.626.482-1.24.562-1.364.25-.386.154-2.718-.145-3.524a13 13 0 0 1-.369-1.138c-.208-.881-2.606-.883-3.897-.003-.335.228-1.098.499-1.737.617-.713.131-1.311.355-1.6.598-.296.25-.868.459-1.596.584-.624.108-1.524.379-2 .603-2.327 1.094-15.242 1.078-16.551-.021-.138-.115-.681-.334-1.207-.486s-1.055-.416-1.174-.586-.614-.46-1.099-.645c-.486-.184-1.045-.489-1.243-.677a86 86 0 0 1-2.023-2.012c-.855-.869-1.415-1.586-1.602-2.05a5.8 5.8 0 0 0-.605-1.056c-.219-.292-.469-.968-.569-1.535-.113-.643-.32-1.166-.565-1.431-.487-.525-.526-.663-.735-2.598-.094-.873-.282-1.954-.417-2.403-.606-2.015-.265-4.025.775-4.562.284-.147 5.162-.207 19.297-.239l18.917-.043.774-.362c.859-.401.92-.519 1.492-2.914.312-1.307.316-1.485.081-3.715a119 119 0 0 1-.352-4.009c-.145-2.303-.353-3.558-.828-5.015-.224-.686-.458-1.63-.52-2.097-.078-.585-.259-1.016-.585-1.387-.276-.313-.548-.89-.654-1.383-.122-.571-.307-.927-.57-1.099-.214-.14-.526-.615-.693-1.054-.168-.439-.513-.974-.767-1.188-.254-.215-.462-.463-.462-.552 0-.19-2.977-3.142-3.17-3.142-.072 0-.44-.258-.818-.573s-.853-.624-1.057-.685-.596-.32-.871-.575-.913-.583-1.417-.729a12 12 0 0 1-1.737-.684c-.451-.231-1.014-.42-1.251-.42-.697 0-1.536-.298-1.961-.697-.574-.539-5.308-.739-11.384-.48m149.833 0c-2.222.09-2.477.134-3.167.54-.491.29-1.209.509-2.083.635-.733.106-1.629.343-1.991.528s-1.277.471-2.034.637c-.757.165-1.572.455-1.812.643-.24.189-.829.457-1.308.597s-1.045.439-1.259.666-.6.46-.859.517-.85.465-1.313.907l-.843.803-.135 1.81c-.358 4.803.577 6.582 2.724 5.184.365-.238.999-.52 1.409-.628s.957-.373 1.216-.591c.258-.218.756-.473 1.105-.567s.834-.356 1.078-.582.761-.488 1.149-.583c.389-.095 1.081-.357 1.54-.582 1.023-.503 1.204-.552 2.741-.745.774-.097 1.395-.279 1.684-.492.747-.553 2.348-.726 6.115-.662l3.46.059.916.522c.504.287 1.268.572 1.696.633.488.07 1.011.295 1.398.603.34.27.681.491.756.491.186 0 1.817 1.617 1.817 1.802 0 .081.25.405.556.72.378.388.593.803.671 1.288.063.393.275.931.471 1.197.471.637.596 1.671.735 6.088l.116 3.679-.505.565-.504.564-2.895-.045a72 72 0 0 0-5.895.206c-1.65.138-3.975.3-5.167.359-2.255.113-3.854.368-5.014.802-.374.14-1.513.371-2.532.513-1.538.214-1.919.327-2.256.663-.256.256-.697.45-1.193.524-.532.08-.943.271-1.269.59-.265.259-.802.566-1.192.681a3.7 3.7 0 0 0-1.246.716c-.294.278-.819.749-1.166 1.047-1.346 1.156-2.247 2.117-2.561 2.733-.18.353-.405.642-.5.642s-.362.431-.594.958-.562 1.11-.735 1.296c-.325.35-.577 1.741-.997 5.496-.177 1.578-.166 2.157.079 4.166.526 4.331.532 4.359.976 4.944.232.306.547.869.699 1.252.153.382.38.735.506.783.125.048.355.334.511.635.418.807 2.037 2.558 2.723 2.943.329.185.779.529 1 .765.222.235.537.428.701.428s.553.223.863.496c.322.283.967.6 1.499.739a13.5 13.5 0 0 1 1.684.575c2.509 1.11 13.111 1.078 15.312-.046.439-.225 1.212-.46 1.718-.523.696-.087.981-.207 1.168-.494.137-.209.639-.547 1.116-.752s.956-.499 1.064-.654.483-.368.833-.475c.377-.114 1.078-.609 1.72-1.214 1.395-1.314 1.614-1.454 2.558-1.631 1.039-.194 1.082-.096 1.154 2.62.085 3.233.451 3.526 4.407 3.526 2.159 0 2.456-.035 2.836-.333.233-.184.521-.334.641-.334.756 0 .738.515.733-20.412-.004-20.006-.101-24.219-.579-25.364-.145-.347-.378-1.383-.519-2.302-.304-1.999-.504-2.696-.805-2.812-.124-.047-.354-.485-.512-.973s-.495-1.112-.749-1.387-.513-.67-.576-.879-.303-.503-.534-.654c-.23-.151-.486-.451-.567-.665a1.08 1.08 0 0 0-.546-.542c-.219-.083-.542-.334-.718-.558-.176-.223-.555-.528-.843-.677s-.57-.417-.627-.595c-.077-.242-.404-.391-1.303-.594-.661-.149-1.464-.452-1.786-.674-.348-.239-1.126-.505-1.917-.657-.787-.15-1.536-.406-1.831-.626-.751-.559-5.655-.745-12.417-.472m72.193.003c-1.532.085-1.921.159-2.049.387-.219.39-.657.599-1.653.788-.468.089-1.042.312-1.276.496s-.958.494-1.609.687c-.67.2-1.282.493-1.41.675-.123.177-.516.438-.871.58s-.689.393-.741.558-.303.386-.558.492-.758.454-1.119.774c-.362.32-.858.691-1.104.824-.245.134-.49.381-.544.551-.054.169-.284.408-.511.529a2.2 2.2 0 0 0-.666.608c-1.374 2.097-2.246.92-2.248-3.034-.001-2.73-.114-3.206-.868-3.651-1.047-.619-7.436-.463-7.924.194-.165.221-.208 6.385-.203 29.539.005 30.398-.007 29.843.638 29.843.105 0 .471.15.813.334 1.431.767 6.599.433 8.071-.521.856-.554.801.87.803-20.843.002-12.579.062-19.939.167-20.213.225-.594 2.046-2.759 3.699-4.4 1.541-1.53 2.015-1.948 2.762-2.437.389-.255.708-.527.708-.605s.304-.296.675-.485c.371-.19.718-.458.771-.596.053-.139.518-.461 1.034-.716a80 80 0 0 0 1.437-.73c.275-.146 1.12-.349 1.877-.451.758-.103 1.664-.288 2.014-.411a2.35 2.35 0 0 1 1.289-.091c1.467.3 2.537.48 3.438.581.601.067 1.177.26 1.564.523a8 8 0 0 0 1.216.66c.685.279 2.249 1.949 2.593 2.77.126.301.424.73.661.952s.431.526.431.676c0 .149.225.627.501 1.061.599.945.778 1.675.926 3.776.062.871.23 2.033.375 2.583.228.87.274 3.396.355 19.441.105 20.798-.043 18.764 1.418 19.471.756.367 6.623.524 6.834.184.052-.084.313-.202.581-.26 1.085-.239 1.019 1.124 1.008-20.794-.011-22.587-.12-25.878-.885-26.787-.285-.339-.459-.801-.537-1.421-.08-.645-.258-1.101-.595-1.525-.264-.332-.555-.882-.647-1.222s-.32-.795-.507-1.011c-.188-.217-.504-.749-.704-1.183s-.529-.865-.734-.959-.488-.392-.629-.665c-.141-.272-.412-.545-.602-.605s-.43-.297-.534-.525-.494-.57-.865-.759a8.3 8.3 0 0 1-1.255-.82c-.319-.262-.7-.477-.847-.477-.146 0-.61-.227-1.03-.505-.472-.313-1.163-.576-1.809-.69-.726-.128-1.174-.312-1.462-.6-.603-.603-4.59-.828-9.663-.545m-182.762 1.018c-1.663.231-1.663.231-1.541 2.376.092 1.606.15 1.863.524 2.306.231.275.46.7.51.945.238 1.164.468 1.808.759 2.123.18.195.455.971.633 1.785.173.792.468 1.688.656 1.992s.419 1.033.513 1.618c.12.743.296 1.196.582 1.497.259.272.507.855.676 1.584.146.635.417 1.399.602 1.698.185.3.452 1.168.594 1.93s.391 1.535.552 1.718c.435.495.497.642.68 1.607.092.486.356 1.154.586 1.486.265.383.514 1.117.682 2.006.145.771.443 1.707.662 2.081a4.8 4.8 0 0 1 .505 1.466c.068.491.286 1.008.584 1.384.262.33.478.645.48.702.015.551.536 2.399.804 2.856.188.318.46 1.16.607 1.87.18.875.389 1.414.651 1.675q.384.386.596 1.503c.116.615.277 1.16.359 1.21.325.201.653 1.112.817 2.268.117.821.31 1.414.595 1.826.232.335.533 1.084.669 1.665.135.58.396 1.215.58 1.41.211.226.445.915.64 1.886.169.842.419 1.659.555 1.815.27.31.536 1.098.7 2.071.057.341.287.838.511 1.105.23.273.519.962.662 1.579.317 1.366.83 2.186 1.584 2.531.321.146.808.394 1.083.549.425.24 1.122.291 4.607.337l4.107.054 1.143-.451c1.401-.553 1.664-.771 1.8-1.497.059-.312.282-.776.496-1.03.215-.255.48-.896.589-1.424.11-.528.375-1.168.589-1.423.275-.326.465-.898.645-1.944.154-.893.391-1.665.595-1.942.187-.252.417-.82.511-1.261.094-.442.208-.969.254-1.171s.261-.559.478-.793c.244-.263.47-.816.596-1.454.111-.566.379-1.372.594-1.791s.482-1.248.593-1.844c.21-1.127.56-2 .803-2 .129 0 .339-.665.602-1.905.057-.269.286-.706.509-.972.223-.265.407-.645.409-.844.006-.781.494-2.622.811-3.064.184-.256.457-.953.607-1.548s.428-1.25.617-1.454c.215-.231.429-.829.567-1.584.121-.667.409-1.587.639-2.046s.5-1.265.599-1.793c.105-.555.349-1.159.578-1.431.23-.273.509-.968.666-1.657.148-.653.41-1.365.582-1.583s.401-.916.51-1.55c.239-1.386.412-1.878.814-2.319.167-.183.39-.746.495-1.25s.378-1.199.606-1.544c.26-.394.503-1.137.652-1.99.136-.777.381-1.557.572-1.814.183-.248.452-.964.598-1.591.158-.683.421-1.308.655-1.559.267-.286.453-.783.585-1.564.107-.63.34-1.53.519-2 1.132-2.979.391-3.533-4.675-3.496-4.346.031-4.77.139-5.172 1.311-.156.457-.44 1.13-.631 1.497-.19.367-.433 1.177-.54 1.801-.127.739-.333 1.299-.591 1.605-.245.292-.493.938-.651 1.699-.141.676-.408 1.437-.594 1.692-.213.291-.43 1.037-.584 2-.158.991-.37 1.708-.597 2.019-.194.265-.486 1.003-.65 1.639-.163.636-.491 1.435-.727 1.776s-.43.819-.43 1.061c0 .767-.362 2.18-.758 2.958-.21.413-.467 1.176-.571 1.697-.117.584-.378 1.185-.68 1.565-.334.42-.492.81-.496 1.219-.003.331-.159 1.015-.346 1.519-.632 1.701-.799 2.247-.987 3.214-.11.562-.344 1.132-.564 1.369-.246.266-.447.806-.583 1.569-.115.64-.315 1.252-.447 1.361-.279.232-.666 1.539-.822 2.778-.063.498-.285 1.133-.516 1.473-.223.329-.484.986-.579 1.459-.204 1.022-.478 1.777-.644 1.777-.222 0-.511.852-.67 1.978-.205 1.445-1.199 3.633-1.768 3.892-.568.259-.852-.055-1.175-1.301-.14-.542-.403-1.145-.584-1.34-.206-.222-.425-.874-.586-1.75-.142-.768-.47-1.846-.729-2.396s-.519-1.375-.58-1.833c-.071-.541-.249-.981-.508-1.255-.271-.286-.485-.84-.669-1.726-.148-.717-.415-1.55-.592-1.851-.178-.302-.442-1.174-.586-1.939q-.262-1.39-.649-1.85c-.212-.252-.475-.891-.584-1.419s-.381-1.272-.603-1.654c-.246-.421-.51-1.307-.67-2.25-.186-1.09-.377-1.69-.64-2.004-.22-.263-.448-.867-.554-1.468-.112-.635-.332-1.201-.584-1.5-.292-.347-.481-.912-.683-2.032-.158-.886-.419-1.748-.605-2.008-.18-.251-.427-.984-.549-1.629-.136-.716-.357-1.318-.569-1.544-.191-.204-.475-.896-.631-1.538-.157-.641-.467-1.559-.689-2.038s-.481-1.379-.574-2c-.107-.706-.326-1.357-.587-1.74-.228-.337-.531-1.124-.671-1.75s-.362-1.259-.491-1.407c-.13-.147-.406-.708-.615-1.245-.352-.91-.429-.991-1.12-1.197-.939-.28-6.325-.413-7.894-.195m67.505.01c-1.748.168-1.861.241-2.103 1.367-.38 1.766-.149 57.671.24 58.101 1.314 1.451 8.012 1.483 9.314.044.409-.452.356-58.698-.054-59.099-.512-.501-4.288-.712-7.397-.413M147.5 44.923c1.926.126 2.689.307 3.073.733.162.178.667.404 1.123.501.91.196 1.339.39 1.797.814.166.153.592.456.946.673s1.057.916 1.561 1.554a82 82 0 0 0 1.441 1.773c.288.338.613.943.721 1.346.109.402.339.927.512 1.166.365.504.649 1.639.655 2.617.003.418.177 1.001.448 1.5.634 1.168.694 4.081.094 4.569-.608.494-1.408.517-16.067.464-13.867-.049-13.949-.052-14.417-.4q-.833-.62-.385-2.389c.106-.418.294-1.389.419-2.157.149-.915.34-1.518.555-1.75.181-.194.456-.804.612-1.354s.499-1.331.764-1.737c.265-.405.481-.839.481-.963 0-.125.244-.49.542-.812a79 79 0 0 0 1.208-1.342c1.187-1.348 1.989-2.084 2.533-2.324a3.7 3.7 0 0 0 .937-.64c.253-.253.696-.449 1.178-.521.425-.064.941-.246 1.146-.405s.561-.39.79-.512c.457-.246 4.237-.659 5.166-.566.321.032 1.296.105 2.167.162m159.591 25.986.409.409-.001 5.383c-.001 5.692-.089 6.529-.719 6.816-.202.092-.498.395-.658.674s-.432.544-.603.589-.393.259-.491.476c-.099.217-.39.503-.646.636s-.636.474-.845.758-.49.517-.624.517-.338.156-.453.347c-.116.191-.473.484-.793.65a7 7 0 0 0-1.084.737c-.275.238-.85.549-1.279.692s-.875.375-.993.517c-.891 1.074-10.008 1.267-11.294.238-.238-.191-.787-.535-1.219-.764s-.864-.563-.96-.742-.379-.423-.629-.543a1.7 1.7 0 0 1-.68-.686c-.123-.257-.333-.509-.466-.561-.351-.134-.664-.828-.887-1.969-.108-.55-.306-1.287-.44-1.639-.328-.857-.325-2.679.005-3.646.147-.432.348-1.218.446-1.747.291-1.578 2.884-4.69 4.136-4.965.285-.063.741-.301 1.012-.53.353-.297.887-.484 1.866-.655.905-.158 1.582-.385 1.987-.665.766-.531 2.855-.674 10.445-.711l5.049-.025z"/><path fill="#bd0a0a" d="M192.339 10.156c-.2.374-.03.933.506 1.658.194.262.452.998.573 1.637.127.664.404 1.429.647 1.788.235.345.472.902.528 1.236.165.986.406 1.65.683 1.88.339.282.517.771.707 1.953.089.552.342 1.244.587 1.604.255.377.43.866.43 1.206 0 .629.19 1.067.763 1.755.208.252.464.889.567 1.417s.402 1.448.664 2.043.529 1.481.592 1.968c.08.62.234.994.515 1.255.246.228.527.831.731 1.565.182.658.488 1.496.68 1.864.191.368.404 1.08.472 1.583.077.565.298 1.163.58 1.57.25.362.59 1.101.754 1.644s.42 1.171.568 1.397.428 1.081.622 1.899c.195.819.495 1.668.668 1.888.172.219.398.831.502 1.359.223 1.134.264 1.203.872 1.47.76.334.908.253 1.212-.67.159-.481.384-1.025.5-1.208s.453-1.121.749-2.084c.296-.962.632-1.9.745-2.083.114-.183.3-.746.414-1.25.115-.504.461-1.397.769-1.983.309-.587.561-1.236.561-1.442s.212-.777.47-1.268c.259-.492.564-1.268.678-1.726s.324-1.012.467-1.232c.144-.221.364-.803.49-1.292l.459-1.787c.126-.493.391-1.115.589-1.382s.738-1.607 1.202-2.978.939-2.606 1.055-2.743c.117-.138.378-.807.581-1.488s.551-1.475.773-1.765c.242-.318.403-.755.405-1.096.002-.786.399-2.201.8-2.855.183-.301.421-.884.529-1.296a5.3 5.3 0 0 1 .62-1.374c.638-.935.934-2.361.56-2.7-.498-.45-28.597-.389-28.839.063"/></g></svg>